<svg id="Capa_1" data-name="Capa 1" xmlns="http://www.w3.org/2000/svg" viewBox="0 0 192.76 192.76"><defs><style>.cls-1{fill:#fff;fill-rule:evenodd;}</style></defs><title>ipn</title><polygon class="cls-1" points="0 0 192.76 0 192.76 192.76 0 192.76 0 0 0 0"/><path class="cls-1" d="M277.18,315.93a1.69,1.69,0,0,1,.35,1c0,1.69-3,3.07-6.62,3.07s-6.63-1.38-6.63-3.07c0-2.73,5.84-3.32,7.27-3.15a12.44,12.44,0,0,1,4.52,1.26v-1.45a13,13,0,0,0-2.38-.66c-3.2-.4-7.51-.4-10.32,2a3.46,3.46,0,0,0-.31.23,2.68,2.68,0,0,0-.86,3.44,7.12,7.12,0,0,0,2.4,2.15v0s0,0,.06,0l.32.19v0c2.93,1.48,5.66,1.29,8.68,1,3.53-.63,6.11-2.42,6.11-4.52,0-1.59-1.55-2.79-2.59-3.37v1.85Zm-43.86-60.86v4.47c.52-.05,1-.09,1.6-.09a14.41,14.41,0,0,1,1.46.07l.09-4.66-3.15.21Zm-.61,3.75v-3.68c-.64.4-3.87,2.74-3.86,5.25-.38,3.74,3.15,6.34,4.06,6.6,3.57.91,16,5.14,16.69,10.48.88,9.29-8.45,14.52-14.77,14.56l-.47,5.29s2,4.17,8.61,6.51c4.09.88,6.53.63,8.07.11a12,12,0,0,0,5.08-3.88c.21-.71.34-1.4.46-1.94-.09-4.08-2.95-11-5.49-16.79a14,14,0,0,0-.37-7.41c-.91-1.86-1.25-2.74-4.2-4.88-4.31-3.15-12.33-5-14.06-6.92-.68-.92-.58-2.95.25-3.3Zm23.83-23.06a15.57,15.57,0,0,1,1.77,2.44c4.18,1.21,7.9,2.57,11.1,3.74a61.53,61.53,0,0,0-5.08-25.3l-7.79,19.12Zm-.82,65.42a12.74,12.74,0,0,1-4.75,3.25h0c-10.21,2.65-17-6-17.13-6.9a35.21,35.21,0,0,1,.47-5.45c-.3,0-.69,0-1,0,0,.49-.54,5.1-.54,5.56,1.6,2.81,2.22,3.63,5.86,5.93,3.4,1.77,8.45,2.85,12.5,1.52,0,0,.59-.26.06,0a8.49,8.49,0,0,0,3.14-1.95,6.91,6.91,0,0,0,1.38-1.92Zm17.79,11.22a14.74,14.74,0,0,1,2.2.55l.32-.25v0h0V303.9h0v0h-5.54l3.05,8.53Zm4.54,1.63a6.66,6.66,0,0,1,1.59,1.36l1.13-1.36Zm2.33,2.62a3.52,3.52,0,0,1,.22,1.17c0,2.84-3.67,5.2-8.41,5.57l-3.7,2.9h-6.07l.22,3.09-1.48,2.56-11.42,0-.64-1.17-11.47-.07-.69-2.4-6.13-.21-3.74-2-.14-2.62.31-2.88-7.62,0L218,317.61l-.47-.74v-3l1.27-3.6-4.64-.16c-1,1.36-3.15,2.48-7.36,2.5-7.12-.21-8.32-3.93-7.46-6.44.64-1.31,2.85-1.73,3.3-1.94v-45.5l4.35-5.8.87.26,4.35,5.8v36.79l1.2,0q-1-2.28-1.91-4.7L207.88,295l0,0,.35.79,2.87,0v-36l-4-5.4-3.55,4.47v45.24a26.19,26.19,0,0,1,6.62.12l-.39-2.36,4.07-4.55-1.63,0v7.42c-.3-.06-.79-.14-1.11-.18v-7.28l-5.49-.16-.29-.78h0l-.13-.42-1.1-3.07.05,0-.22-.66.79-2.71,4.47-5.74c-.09-.3-.15-.61-.24-.93l-7.54-.49-.51-1-.15,0-.71-3.79,1.27-2.13,5.25-5.48c-.13-1.19-.25-2.4-.37-3.62l-4.51-2.77-.12,0-2.09-.81v-3.45l1.89-1.52,1.9-.94,2.61-3.36c0-.4,0-1,.05-1.39l-5.79.57s1.88-1.57,4.91-3.77l-3.63-2.08-1.5-1.57.4-4.27,2.22-.49,4.57-.07c.22-1.4.47-2.78.76-4.14v10.63l1.06-.73v-6.71l3.7-.55v4.87l1.08-.67v-4.36l3.24-.47v3c.35-.21.7-.41,1.07-.6v-2.55l4.32-.63v1l1.07-.47v-.71l2.9-.46a38.42,38.42,0,0,1,6.49-1.78v-4.75c-.53-.07-1.25-.28-1.4-.85a2.76,2.76,0,0,1,.55-2.95,2.41,2.41,0,0,0-1.49-1.4v-5l4-.92,1.31,3.84,1.4,0-1.31-4.11,1.06-.22,4.58,14a36.31,36.31,0,0,1,5.3.62l.59-1.12a21,21,0,0,0-4.68-.3l-4.41-13.48,1.21-.29.84,2.7L253,218l1.48-3.61,3.88-1-8.75,22.75,1.6.33L260,213l1.81-.43a5.44,5.44,0,0,1-.41,4.36l-8,20.06,1.38.35,8.3-20.79a4.9,4.9,0,0,0-.06-4.28l16.28-3.84,4.57,2.62,6.75-1.66-7-4.14L230.4,218.28v-4.73l1.69-.45v-3.22l-3.3-1.11v-1.38l3.3,1.2V195.51l-3.3-1.71v-1.39l3.3,1.76V183.73l.72-.39v-1l-4-2.09v-1.38l4,2.15V170.28l-4.08-2.48v10.9l-5.39,2V168.36l5.39-2.56,14.17,8.8V185l.94.54v-7l10.21-3.35,8.71,5.29v15.35c-.13,3.61-3.55,5-7.61,6.19v5.22l8.17-2.06V171.35l6.19-2.32,5.88,3.47v-5.79l5.78-2.08v.19l7.39,4v33.87l4.06,2.56v5.54l-8.54,1.85,9.82,5.57-.1,4.43-.6,1.68L288,229.45l-.07.55.69-.07,7.66,3.58v6.66l-7.11,3.06v4.21l7.26,2.86v6.58l-7,1.35,0,4.8,6.32,4.82-.2,6.35-7.08-.4-1,3.79,5.5,6.55-.08,5.27-1,.93-7.37-.65v1.82l5,8v1.67l-1.77,4.4h-8.11l2.74,7.86v1.26l-2.07,2Zm-10.5,6.75a14.28,14.28,0,0,1-5.17-1.27l.12,1.15-2.31,1.54h5.61l1.75-1.42Zm-7.12-8.62a8.7,8.7,0,0,1,2.11-1.35v-57l1.24-2.39h0l1-1.85h0l3-5.69,1.73-.35,5.36,9.08v30.17h0v0l6,4.05h.1v1.15h-6.13v0h0V302H276V255.87l-4.92-8.38-2.46,4.44h0l-1.33,2.39h0l-1.15,2.07-.23,51.67v2.88l-1.08.52c-.52,1.26-1.64,1.14-2.44,2.39l.35.93Zm9.2,1.29h-6.35c.57-1,2.64-1.78,5.1-1.78,2.9,0,5.26,1,5.26,2.36s-2.36,2.34-5.26,2.34-5-1-5.24-2.17H272v-.75Zm5.2-3.4h0V303.9h0v0h.41l.23.28,2.75,8.52ZM276,302.51v-.41l-3.62-4c-.74,1.51-1.52,3-2.34,4.4Zm-7.7-48.61,1.05-1.89.79-.07a12.68,12.68,0,0,1,.08,1.8l-1.92.16Zm-1.95-1.7-1.1,1.91-13.91,1a23.75,23.75,0,0,1-1.35,5.48l11.89,34.2a.16.16,0,0,1,0,.09c-.1.19-.22.4-.32.61-.35.21-.84.26-1-.09L249,262.58c-.54.89-1.26,2.65-2.12,3.24a13.62,13.62,0,0,0-1.47-2,21.89,21.89,0,0,0,3.05-16.07l2.6-.24a18.68,18.68,0,0,1,.35,5.83l14.91-1.12Zm-59,53.17c-1.34,0-5.3-.07-5.71,1.31s1.67,2.88,5.41,2.84c1.53,0,4.36-.14,5.19-1.88.45-1.1-1.16-1.68-1.89-1.87l0,0a17.05,17.05,0,0,0-3-.42Zm5.6,4.75h0l-.42.28a5.12,5.12,0,0,1-1.23.56h0a14.22,14.22,0,0,1-4.53.59c-5.48,0-7.41-3.37-6.54-5.15s5.54-1.71,7.51-1.68a18.24,18.24,0,0,1,2.46.25h0c1.54.25,3.47.65,3.86,2.17a1.25,1.25,0,0,1,.08.42,2.43,2.43,0,0,1,0,.51,3,3,0,0,1-1.17,2Zm-10.41-3.32h5.13v.51h-5c.4.71,2,1.38,4.41,1.38a9.77,9.77,0,0,0,4.06-.86l0-1.29a8.84,8.84,0,0,0-3.76-.74c-1.13,0-4.39-.05-4.75.9,0,0,0,.07,0,.1Zm12.16,2.09a13.6,13.6,0,0,0,.11-1.53,2.29,2.29,0,0,0-.57-1.31l3.17-2.43c.77,1.28,1.58,2.48,2.41,3.63l-.58,1.64Zm-6.17-27.56-4.24-.07-1.47-.12.89-.07L208,278.9c.17.82.36,1.62.54,2.43Zm-2.47-16.24-1.74-.84,1.69.25c0,.19,0,.38.05.59Zm21.39,54-6.15,0,.77-1.39,2.26-5.09a37.88,37.88,0,0,0,3.52,3.15l-.4,3.28Zm9.5,7.66-5.78-.14.89-2.21.81-5.28a29.48,29.48,0,0,0,4.08,1.51v6.12Zm4.29,2.54,7,0-.46-.82-.5-7.19a22.52,22.52,0,0,1-3.86.35l-.83,0-.62,6.11-.71,1.61Zm12.32-9h4.73l-1.15-3.14a30.5,30.5,0,0,1-3.57,2.06v1.08Zm5.27,1.47h-5.29l.12,6.4-.42,2.27h6.68l1.28-1.71-.64-4.07L259.27,323l-.45-1.27Zm18.53-30h5.81l4.93,7.85h-7l-1.35-2.77-2.34-5.08ZM281,301h7.22l-1.41,3.51-7.08-.11L281,301Zm6-27.4L286,277.28l-6.74-.67h0c.34-1.83.64-3.68.88-5.58l6.85,2.6Zm-6.9,4.21,6.35.72,5,5.39-6.79-.75-4.53-5.36Zm4.54,6.74,7,.54-.2,4-7.14-.67.33-3.91Zm3.56-26.4,0,4.79-7.41-.79c.09-1.68.12-3.39.12-5.1v-.76l7.26,1.86Zm-6,5.28,6.37.64,4.58,3.28-6.18-.85-4.77-3.07Zm5.59,4.55,6.72.61-.1,4.39-7-.82.39-4.18ZM207.8,212.19l-.47.05-1.72,4.19,2.19,2.74v-7Zm0,14.84-4.23-1.4-1.38,4.77L207.8,236V227Zm5.56,24.25c-.12,2-.09,3.67-.09,5.81,0,29.47,12.82,53.52,28.52,53.52,5.49,0,10.64-3,15-8.1h-.05c.31-.36.64-.77.91-1.11h0l.65-.87a.39.39,0,0,0,.07-.09h0c.17-.22.34-.45.51-.7-.31.18-.63.34-.93.49l-.19.27a.26.26,0,0,0-.11.12c-.15.33-2.85,3.24-2.85,3.24l0,0c-2.61,2.48-6.42,4.84-11.12,4.59-9.33-.49-14.94-7.89-15.7-8.64s-.28-1.29-.28-1.29l3-7.12c-.39-.11-.78-.25-1.17-.39-.43.93-2.46,5.33-2.81,6s-1.21.14-1.21.14a15.52,15.52,0,0,1-1.11-1.78,2.29,2.29,0,0,1,.23-1.45l2.29-4.21c-.35-.22-.7-.45-1-.71l-2.33,4.68c-5.49-10.31-8-24.19-8-36.11l14.17-1a13.44,13.44,0,0,1,2.12-1.94l-16.19,1.19V251l-2.37.28Zm49.72,41.29c.22-.49.45-1,.67-1.48L255,265.74a29.1,29.1,0,0,0,2.29-8.45l-1.92.1a34.89,34.89,0,0,1-2.24,7.42l9.62,27.52a.43.43,0,0,0,.37.24Zm1.23-2.79c3.74-9.06,6-20.4,6-32.69,0-.24,0-.35,0-.57l-9.75.59a30.84,30.84,0,0,1-3.19,11.35l7,21.32ZM239.8,174.46v8.78l1.74,1v-8.75l-1.74-1Zm-.91,8.22v-8.8L237,172.71v8.75l1.87,1.22Zm-2.91-1,0-9.5-2.14-1.33v10.56l1.27.77.91-.5Zm-13.71-12.8L218,171v11.8l4.32-1.62V168.89Zm-5.39,2.56L213.64,173v11.38l3.24-1.2V171.45Zm-4.32,2.06-3.7,1.77v10.89l3.7-1.38V173.51Zm-3.7,14v11.64l3.7-1.25V186.12l-3.7,1.4Zm0,13v11.85l3.7-.9V199.23l-3.7,1.26Zm0,13.16v11.23l3.7-.66V212.75l-3.7.9Zm0,12.52v12l3.7-.54V225.51l-3.7.66Zm0,22.65V250l-2,.21,2-1.34Zm3.7.77v-3.13l1.08-.65v3.67l-1.08.11Zm4.32-.44V244c.35-.2.7-.39,1.07-.58V249l-1.07.11Zm5.39-.56v-4.35l1.07.42v3.83l-1.07.1Zm0-6.2v-1.22l1.07-.49v2.13l-1.07-.42Zm6.46,5.55v-1.17l2.35.93-2.35.24Zm0-3.05v-6.37l.44-.16,4,8.26-4.47-1.73Zm0-9.71V222.63l-5.39,1V236l5.39-.8Zm0-13.84V208.8l-5.39,1.31V222.3l5.39-1Zm0-13.85V193.75l-5.39,1.82V208.8l5.39-1.31Zm0-15.08V180l-5.39,2v12.17l5.39-1.83Zm-6.46,43.73V223.78l-4.32.77v12.24l4.32-.65Zm-5.39.8v-12.2l-3.24.58v12.1l3.24-.48Zm5.39-14.45V210.37L218,211.44v11.82l4.32-.77Zm-5.39,1V211.7l-3.24.78V224l3.24-.57Zm5.39-14.37V195.93L218,197.4v12.73l4.32-1Zm-5.39,1.31V197.77l-3.24,1.1v12.3l3.24-.78Zm5.39-15.78V182.47L218,184.09v12l4.32-1.46Zm-5.39,1.83V184.5l-3.24,1.22v11.82l3.24-1.1Zm52.68-25.68,5.83,3.59v6.79l-5.83-10.38Zm-.37,32.77,8.21-2.08-8.21-13.86v15.94Zm12-2.94,2.61-.75,3.37,2V170.06l-6-3.13v33.66Zm-37.33-13.72-7-3.82v28.84l7-1.76V186.87Zm5.12,22,5.09-1.31v-5.25l-5.1-3.35v9.91Zm1.29-11.21,4.36,2.85c2.64-.68,5.84-1.5,6.95-4.38v-14.7l-5.32-3v16.37c-.1,1.21-2.85,2.19-6,2.83Zm-1.42-13.91,2.17-.89v8.62l-2.17.88v-8.61Zm33.89,71.91,5.73,1.35,5.29-.56-5.7-1.59-5.32.8Zm5.9-2.41,6.68,2.24.07-4.17-6.57-2.5-.18,4.43Zm-.8-6.18v-3.64l-6.73-2.61-.32.2c.11,2,.13,4,.05,5.95l.2.1Zm-5.37-7.29,5.83,2.48,6.48-2.62-6.95-2.92c-1.38,1-3.61,2-5.36,3.06Zm5.85-4.47,7,3.09v-3.9l-6.72-3-.25,3.79Zm-2.92-20.76,7.48,4.34v2.85l-7.43-4.24-.05-2.95Zm7.14,8.55-5.39,5.24-6.82-3.77,5.14-5.34,7.07,3.87ZM279.35,226l7,3.7,0,.52-2.11.16-4.76,1a39.35,39.35,0,0,0-.09-5.43Zm-50.5,61.3s1.43-.46.83-.81-1.92-.35-2.44-.7-.68-.8.06-.89.95-.28,1-1,0-3.39,0-3.39a8.2,8.2,0,0,0-1.07-.87c0,1.06.08,1.64,0,1.27a5.69,5.69,0,0,1-.62-1.62.59.59,0,0,0-.17,0h-.1l-1.17-.21c.19,1.64.37,2.72.24,2.23a11.35,11.35,0,0,1-.86-2.37c-.32-.07-.61-.16-.88-.23.38,1.57.66,2.71.32,2.52a13.08,13.08,0,0,1-1-2.75c-1.23-.43-1.92-.92-1.92-1.45s.56-.92,1.55-1.31c0-.45-.07-.9-.07-1.15,0-.52-.07-1.69-.07-1.69s.53-1.15.76-1.87,1.05-.17.22,1c-.57.72-.57,2.08-.37,3.56a11.54,11.54,0,0,1,1.15-.33c0-.23,0-.42,0-.56a3.36,3.36,0,0,1,.22-1.07,22.54,22.54,0,0,1,.45-2.49c.22-.72,2.41-2.15.76-.09-.57.7-.74,2.31-.71,4.05.41-.1.85-.17,1.32-.26v-.4a1.12,1.12,0,0,1,.3-.81s.52-3,.76-3.75,2.41-2.13.74-.09c-.62.79-.84,2.8-.89,4.91,1-.14,2-.26,3.16-.33.51-2.39,1.71-3.74,2.83-5.71a8.55,8.55,0,0,1-5.1-6.71,15.75,15.75,0,0,0-8,13.92c0,8.61,6.67,15.64,14.88,15.64,5.17,0,15.59-5,13.52-13.16a21.75,21.75,0,0,1-3.4.85c-.39.83-1.38,3-1.48,2.78-.61.28.1-1.05.59-2.62-.73.12-1.5.21-2.33.3,0,0,0,0,0,.05-.46.61-1.13,1.33-1.13,1.33s.22,2.15-.31,2.23a1,1,0,0,0-.75.54l-1.44,2a3.78,3.78,0,0,1-1.21,1.15c-.67.37-1.19,1.89-1.19,1.89,8,1,11.5-7.91,11.35-8.28,0,0,.91-.26.07,1.35-1.72,5.29-6.17,8.38-12.69,8.41-1.33,0-1.9-.05-1.87-.31-.84.56-1-1-1-1l1-1.57a4.71,4.71,0,0,0,.59-2.33,2.68,2.68,0,0,1,1-1.79,1.46,1.46,0,0,1-.32.1c-.6.09-1.43,1.87-1.36,2.5a1.79,1.79,0,0,1-1,1.78c-.67.28-.82,1.34-.82,1.34a3.64,3.64,0,0,1-1.52.44c-.5,0-5.84-3.16-3.89-3.49,1-.18,3.45,1.45,3.45,1.45Zm53.72-73.77v-1.75l-3.71-2-3.43,1.92a27.3,27.3,0,0,1,1.55,5.87l5.59-4.07ZM255.4,239.55a22.89,22.89,0,0,1,1.53,5.53l-1.92.19a23.31,23.31,0,0,0-2.2-6.4l2.59.68Zm4.75,5.16a16.28,16.28,0,0,0-1-4.06c5.57,1.6,9.84,3.16,9.84,3.16l-8.88.9Zm-11.61-4.08a13.65,13.65,0,0,1,2.11,5.08L248,246a10.4,10.4,0,0,0-1.62-4l2.12-1.38Zm-7.85-18.3,11.61-2.62-4.45,11.35a41.9,41.9,0,0,0-4.66-.31l-2.5-8.42Zm-7.39,3.55V224h3.08v2a9.9,9.9,0,0,0-3.08,0Zm4.87,1.83.35-.35,2.29,7.44c-.4,0-1-.06-1.45-.09l-1.56-5.12c.28-.43.75-1.3.37-1.88Zm11,43.09a17.37,17.37,0,0,0-3.52-5.83,14.38,14.38,0,0,0-10.73-4.87,14.69,14.69,0,0,0-2.31.19,2.14,2.14,0,0,0,.37,1.53c4.85,3.34,12.09,3.85,16.19,9Zm-20.79-11.94-6.5.4a57.29,57.29,0,0,0,0,7.54l0,.26a16.08,16.08,0,0,1,6.18-5.88,5.81,5.81,0,0,1,.39-2.32Zm8.12-28.43-.27-.14c-.4-.21-1-.63-1.38-.59s-1,.4-1.47.54v4.7c.53-.07,1.05-.14,1.57-.18s1-.07,1.5-.08l.05-4.25Zm.42-1.05c-.64-.15-1.53-.83-2.14-.76-.25,0-1,.43-1.3.47s-1.24-.07-1.41-.67-.19-.43,0-1c.27-.4.78-1,1.38-1a9.19,9.19,0,0,1,3.14.14,1.66,1.66,0,0,1,.3,2.81Zm-2.83,1.3h-.39v2.91h.39v-2.91Zm0,3.3h-.39v.33h.39V234Zm-.94,8.27h1.16V237.1c.47-.07.93-.12,1.36-.16l.83-.05-.08,5.43-1.55,3.81-1.72-3.88Zm-.36-4.87v4.12l-1.66-3.72c.57-.15,1.13-.29,1.66-.4Zm.66.4H233v.51h.44v-.51Zm0,2.19H233v1.71h.44V240ZM237,254.82l-.07,3.46s3.37-.3,3.22-2.44a3.55,3.55,0,0,0-3.54-3.6c-2.88,0-5.32-.33-6.45-2.31l-3.27.48c-.65,1-.25,2.63.76,2.93A28.35,28.35,0,0,0,231,254c.67,0,4.66.26,4.66.26.61,0,1.32.23,1.3.59Zm-6.54-5.25a5.25,5.25,0,0,0,4,2h2.05l.05-2.6-6.1.63Zm40.48-5.47-65.61,6.74s17.77-13.55,30.22-14.56c13.17-1,35.39,7.82,35.39,7.82Zm-26.7-6.75a7.85,7.85,0,0,1,3.2,2.09l-2.07,1.28a11.2,11.2,0,0,0-4.87-3l.34-.73c1.11.09,2.26.21,3.4.37ZM237.68,247l13.37-8.43c-.37-.09-.72-.16-1.09-.23L236.11,247l-.06.15-.19,0,1.82-.19Zm-4.18.21.1.21.49-.05-4.34-9.21c.3-.08.59-.19.89-.27l4.23,9.41-2.75.28-12.77-5c.32-.16.64-.33,1-.49l13.17,5.1Zm-4.07-8.94h0Zm10.94-1.35-4.81,10.29-.68.09,4.32-10.43s1.6.09,1.17.05Zm34.1,7.56-72.57,7.32s19.49-15.22,33.22-16.25c14.59-1.17,39.35,8.93,39.35,8.93Zm-31.32,30.58v3.65l1.17-.14a3.74,3.74,0,0,0-.12-2.68,1.83,1.83,0,0,1-.36-.76c-.22,0-.45-.06-.69-.07Zm-1.34,3.79a20.12,20.12,0,0,0-.17-3.95c-.37,0-.76-.07-1.15-.09-.22.49-.3.94,0,1.17.67.46.3,2.06-.24,2.32a1.81,1.81,0,0,0-.61.68c.74,0,1.45-.08,2.13-.13ZM238,270.38c-1.62,1-1-.05-1,3.68h.23a6.09,6.09,0,0,1,.29-.56,2.75,2.75,0,0,0,1.5-2.14,1.11,1.11,0,0,1,.2-.53c-.35-.17-.86-.29-1.21-.45Zm3.18,1.48a3.26,3.26,0,0,1,0,1.64c-.1.2-.25.46-.42.76,1.16.1,2.26.22,3.23.38a.2.2,0,0,1,.26,0c.82.12,1.83.34,2.49.5-.79-1.2-3.1-2.41-5.58-3.32Zm7.18,5.75a3.47,3.47,0,0,0-1-1.8,14.38,14.38,0,0,0-2.38-.49h0l-.49-.07c.17.49.39.94.56,1.42s.07.76.07.76v1a14.18,14.18,0,0,0,3.2-.84Zm-21.16,1.05c0-1-.08-2.29-.08-3.53.92-.12,1.95-.23,3-.3-.19.89-.39,1.89-.58,2.78-.3,1.52-1.65,1-2,1a1.76,1.76,0,0,0-.37.07Zm-1-3.41c0,.59-.05,1.21-.05,1.21l-.08,1.06s.13.47.32,1.05c-.46-.05-.88-.12-1.28-.19-.09-.91-.17-1.92-.21-2.92l1.3-.21Zm-2,.35.1,1.2-.08,1.07s0,.14.1.35l-.83-.21c-.15-.66-.3-1.4-.4-2.1.32-.1.69-.21,1.11-.31Zm-1.62.49c0,.37.05.63.05.63l.14,1c-.71-.26-1.1-.55-1.1-.87s.32-.54.91-.8Zm17.72,3.58-.92.05a6.37,6.37,0,0,0-.24,2.36,2.5,2.5,0,0,1-2,2.76c-.52.17-1.5.08-1.65,1a2.56,2.56,0,0,1-1,1.78c-.29.14-.59.76-1.12,1.37.78-.49,1.92-1,2.09-1.17.37-.46,1.06-1.61,1.06-1.61a2.37,2.37,0,0,1,1.2-.8c.82-.28,1.43-1.61,1.43-1.61a2.93,2.93,0,0,1,.46-1.78,3.83,3.83,0,0,0,.67-1.61,4.08,4.08,0,0,1,0-.71Zm-3.92.16h-.62a1.22,1.22,0,0,1-.16.18,11.77,11.77,0,0,0-.3,1.78,1.62,1.62,0,0,1-.54,1,3.45,3.45,0,0,1,.69-.35s1.13.54.91-1.52a3.86,3.86,0,0,1,0-1.08Zm.67-5.14a.89.89,0,0,0,.44.88c1,.52-.08,2-.08,2a4,4,0,0,0-.88,1.52h-.35a12.13,12.13,0,0,0,.77-4.45Z" transform="translate(-153 -154)"/></svg>